<?xml version="1.0" encoding="utf-8"?>
<!-- Generator: Adobe Illustrator 24.2.3, SVG Export Plug-In . SVG Version: 6.00 Build 0)  -->
<svg version="1.1" id="Layer_1" xmlns="http://www.w3.org/2000/svg" xmlns:xlink="http://www.w3.org/1999/xlink" x="0px" y="0px"
	 viewBox="0 0 1280 334" style="enable-background:new 0 0 1280 334;" xml:space="preserve">
<style type="text/css">
	.st0{fill:#23356E;}
	.st1{fill-rule:evenodd;clip-rule:evenodd;fill:#2F8FCD;}
	.st2{fill-rule:evenodd;clip-rule:evenodd;fill:#7EB04D;}
	.st3{fill-rule:evenodd;clip-rule:evenodd;fill:#F89C32;}
	.st4{enable-background:new    ;}
	.st5{fill:#4285F4;}
</style>
<g id="Layer_x0020_1" transform="translate(-0.35 0.333)">
	<path id="Path_1" class="st0" d="M1154,225.2V79h25.2v121h98.2v25.2H1154z M1107.2,225.2l-21.6-36.5h-68.9l12-21h44.9l-32.3-54.5
		l-66.5,112h-28.8L1030,85.6c1.2-2.4,3-4.2,5.4-6c1.8-1.8,4.8-2.4,7.2-2.4c2.4,0,5.4,0.6,7.2,2.4c1.8,1.8,3.6,3.6,5.4,6l83.9,139.6
		H1107.2z M847.2,184.5v-24.6h58.1c7.8,0.6,15.6-2.4,21-7.8c5.4-5.4,7.8-12.6,7.8-19.8c0.6-7.2-2.4-15-7.8-19.8
		c-5.4-5.4-13.2-8.4-21-7.8h-77.3v120.4h-25.2V79h101.8c7.8,0,15.6,1.2,22.8,3.6c6,2.4,12,5.4,16.8,10.2c4.8,4.8,8.4,10.2,10.8,16.8
		c2.4,7.2,3.6,14.4,3.6,21.6s-1.2,15-3.6,21.6c-2.4,6-6,12-10.8,16.8c-4.8,4.8-10.2,9-16.8,10.8c-7.2,2.4-15,4.2-22.8,3.6
		L847.2,184.5z M750.8,225.2V79h25.8v146.2H750.8z M641.8,161.7v-21.6h80.9v21.6H641.8z M597.5,225.2V79h130v25.8H622.6V200h104.8
		v25.2L597.5,225.2z M498,225.2c-9.6,0-19.2-1.8-28.2-5.4c-8.4-3.6-16.2-9-22.8-15.6c-6.6-6.6-11.4-15-15-23.4
		c-3.6-9.6-5.4-19.8-5.4-30c0-10.2,1.8-19.8,5.4-29.4c3.6-8.4,8.4-16.2,15-22.8c6.6-6,14.4-10.8,22.8-14.4c9-3.6,18.6-5.4,28.2-5.4
		h79.1v25.8H498c-6,0-12,1.2-18,3.6c-5.4,2.4-10.2,6-14.4,9.6c-4.2,4.2-7.2,9.6-9.6,15c-4.8,12.6-4.8,25.8,0,38.3
		c1.8,6,5.4,10.8,9.6,15.6c4.2,4.2,9,7.8,14.4,9.6c5.4,2.4,12,3.6,18,3.6h79.1v25.2H498z"/>
	<path id="Path_2" class="st1" d="M261.4,125.2c-13.2,2.4-23.4,13.8-23.4,27c11.4,6.6,18,18.6,18.6,31.7c1.2-2.4,2.4-4.8,3.6-7.2
		l2.4-6.6l5.4,4.2c6,4.8,13.2,7.8,20.4,9c3.6,0.6,7.2,1.2,10.8,0.6v-31.7c0-13.8-9.6-25.2-23.4-27.6c10.2-4.2,15-15.6,10.8-25.2
		c-4.2-10.2-15.6-15-25.2-10.8c-7.2,3-12.6,10.2-12.6,18C250,115,254.2,122.2,261.4,125.2L261.4,125.2z"/>
	<path id="Path_3" class="st2" d="M154.2,125.2c-13.8,2.4-23.4,13.8-23.4,27.6l0,0v24c1.2,3.6,3.6,6.6,6.6,8.4
		c1.8,1.8,4.2,3,6.6,3.6c4.2,1.8,9,2.4,13.8,1.2c5.4-0.6,10.2-3,15-6l2.4-1.2c0.6-12.6,7.2-23.4,18-30c0-13.8-9.6-25.2-23.4-27.6
		c7.2-3,12-10.2,12.6-18.6c0-10.8-9-19.8-19.8-19.8s-19.8,9-19.8,19.8C142.2,115,147,122.2,154.2,125.2L154.2,125.2z"/>
	<path id="Path_4" class="st3" d="M206.9,151.5c-15.6,3-27.6,16.2-28.8,32.3l1.2,2.4c7.8,13.8,22.2,22.8,38.3,23.4
		c4.2,0,8.4-0.6,12.6-2.4c9-3,17.4-9,22.8-16.8v-4.2c0-16.8-12-31.1-28.8-34.7c12-4.8,18-18.6,13.2-31.1c-4.8-12-18.6-18-31.1-13.2
		c-9,3.6-15,12.6-15,22.2C191.9,138.9,197.9,147.9,206.9,151.5L206.9,151.5z"/>
	<g id="Group_1" transform="translate(0.35 0.284)">
		<path id="Path_5" class="st0" d="M62.5,214h251.6v16.8H62.5V214z M5.6,173.9h16.8v2.4l0.6,2.4v1.8l0.6,1.8l0.6,1.8l0.6,2.4
			l0.6,1.8l0.6,2.4l0.6,1.8l0.6,1.8l1.2,1.8l1.2,0l1.2,1.8l0.6,1.8l1.2,1.2l1.2,1.2l1.8,1.8l1.2,0.6l1.8,1.2l1.2,1.2l1.8,1.2
			l1.8,1.2l1.8,0.6l1.8,0.6l1.8,0.6l1.8,1.2l1.8,0.6l2.4,0.6l1.8,0.6h2.4l2.4,0.6h2.4v16.8h-4.2l-3-0.6h-3l-2.4-0.6l-3-0.6l-2.4-0.6
			l-2.4-0.6l-2.4-0.6l-2.4-1.2l-3-2.4l-2.4-1.2l-2.4-1.8l-2.4-1.8l-2.4-1.8l-2.4-1.8l-2.4-1.8l-0.6-1.8l-1.8-2.4l-1.8-2.4l-1.8-2.4
			l-1.8-2.4l-1.2-2.4l-1.2-2.4l-0.6-2.4l-1.2-2.4l-0.6-2.4l-1.2-2.4l-0.6-2.4l-0.6-3.6l-0.6-2.4v-3V173.9L5.6,173.9z M62.5,117v16.8
			h-4.2l-1.8,0.6l-1.8,0.6l-2.4,0.6l-1.8,0.6l-2.4,0.6l-1.8,0.6l-1.8,0.6l-1.8,0.6l-1.2,1.2l-1.8,1.2l-1.2,1.2l-1.8,0.6l-1.2,1.8
			l-1.8,1.2l-1.2,1.8l-1.2,1.2l-0.6,1.8l-1.2,1.2l-0.6,1.8l-1.2,1.8l-0.6,1.8l-1.8,1.2l-0.6,2.4l-0.6,1.8l-0.6,1.8l0,1.8l-0.6,2.4
			v1.8l-0.6,2.4v2.4H5.6v-3l0.6-3l0.6-3l0.6-2.4l0.6-3l0.6-2.4l0.6-2.4l1.2-2.4l0.6-2.4l1.2-2.4l1.2-2.4l1.8-2.4l1.8-2.4l1.8-2.4
			l1.8-2.4l1.8-2.4l2.4-1.8l2.4-2.4l2.4-1.8l2.4-1.2l2.4-1.8l1.2-1.8l2.4-1.2l2.4-1.2l2.4-0.6l2.4-0.6l2.4-0.6l3-0.6l3-1.2l3-0.6
			H62.5L62.5,117z M57.1,125.4l16.8,0.6l-9,7.8h-2.4V117h3.6L57.1,125.4z M73.9,126v8.4l-9-0.6L73.9,126z M134.4,49.9v16.8h-6.6
			l-2.4,0.6l-2.4,0.6l-3.6,0.6l-3,0.6l-2.4,0.6l-3,1.2l-2.4,0.6l-2.4,1.2l-2.4,1.8l-2.4,2.4L99,78.7l-2.4,1.8l-2.4,2.4l-2.4,1.8
			L89.4,87l-1.8,2.4l-2.4,2.4l-1.8,2.4l0,0.6l-1.8,2.4l-1.2,2.4l-1.2,2.4l-1.2,3l-0.6,2.4l-0.6,3l-0.6,2.4l-1.2,3.6l-0.6,3l-0.6,3
			v3.6l-16.8-0.6v-4.2l0.6-3.6l0.6-3.6l0.6-3.6l1.2-3.6l0.6-3.6l1.2-3.6l1.8-3.6l1.2-3.6l1.8-3.6l2.4-3l1.8-3l2.4-3l2.4-3l2.4-2.4
			l2.4-2.4l2.4-2.4l3-2.4l2.4-2.4l3-2.4l3.6-2.4l3-1.8l3.6-1.2l3.6-1.8l3.6-1.2l3.6-1.2l3.6-0.6l3.6-1.2l3.6-0.6l3.6-0.6H134.4
			L134.4,49.9z M152.9,60.7l16.2,6l-11.4,5.4l-0.6-0.6l-0.6-0.6h-1.2l-0.6-0.6l-0.6-0.6h-0.6l-0.6-0.6h-0.6l-0.6-0.6h-0.6l-1.2,0
			h-1.2l-0.6-0.6h-0.6l-0.6-0.6h-2.4h-1.2h-2.4l-0.6-0.6h-6V49.9h7.8l0.6,0.6h2.4h0.6h1.8l1.2,0.6h0.6l0.6,0.6h0.6l0.6,0.6h1.2
			l0.6,0.6h2.4l0.6,0.6h0.6l0.6,0.6l0.6,0.6l0.6,0.6h0.6l2.4-0.6l0.6,0.6l0.6,0.6h1.2L152.9,60.7z M169.1,66.7l-3,8.4l-8.4-3.6
			L169.1,66.7z M235,2.6V20h-5.4l-3,0.6l-2.4,0.6l-3,0.6l-2.4,0.6l-2.4,0.6l-2.4,0.6l-2.4,0.6l-2.4,0.6l-3.6,1.8l-2.4,0.6l-2.4,1.2
			l-2.4,1.2l-2.4,1.8l-1.8,1.2l-2.4,1.8l-2.4,1.8l-1.8,1.8l-2.4,1.8l-1.8,2.4l-2.4,1.8l-1.8,2.4l0,1.2l-1.8,2.4l-1.8,2.4l-1.2,2.4
			l-1.2,1.8l-1.2,2.4l-1.2,2.4l-0.6,2.4l-0.6,2.4l-16.2-6l1.2-3l0.6-2.4l1.2-3.6l1.8-2.4l1.8-3l1.8-3l1.8-2.4l2.4-2.4l2.4-3l1.2-2.4
			l2.4-2.4l2.4-2.4l2.4-2.4l2.4-2.4l2.4-2.4l2.4-1.8l2.4-2.4l3-1.8l3-1.8l2.4-1.2l3-1.8l3.6-1.2l3-1.2l3-0.6l3.6-1.2l3.6-0.6l3-0.6
			l3.6-0.6l3.6-0.6l3.6-0.6h3.6H235z M321.9,90h-16.8v-3.6l-0.6-3.6l-0.6-3.6l-0.6-3.6l-0.6-3.6l-0.6-3.6l-1.2-3.6l-1.2-3l-1.2-3.6
			l-1.8-1.8l-1.8-3l-1.8-2.4l-2.4-3l-2.4-2.4l-2.4-2.4l-2.4-2.4l-1.2-2.4l-2.4-2.4l-2.4-2.4l-3-1.8l-3-1.8l-2.4-1.8l-4.2-1.8l-3-1.2
			l-3-1.2l-3.6-1.2l-3.6-0.6l-3.6-0.6l-3-1.2l-3.6-0.6h-7.2V2.6l4.8,0.6h4.8l4.2,0.6l4.2,0.6l4.2,0.6l4.2,1.2l3.6,1.2l4.8,2.4
			l3.6,1.8l3.6,1.8l3.6,2.4l3.6,2.4l3.6,1.8l3,2.4l3.6,3l3,3l3,3l2.4,3l2.4,3.6l2.4,3.6l2.4,3.6l2.4,3.6l2.4,3.6l1.2,4.2l1.8,4.2
			l1.2,3.6l1.2,4.2l0.6,4.2l0.6,4.2l0.6,4.2l0.6,4.8L321.9,90L321.9,90z M312.9,90.6l0.6,16.8l-8.4-9.6l0,0v-0.6l0,0v-0.6l0,0V96
			l0,0v-0.6l0,0l0.6-0.6l0,0v-0.6l0,0v-0.6l0,0V93l0,0v-0.6l0,0v0l0,0v-0.6l0,0v-0.6l0,0v-0.6l0,0V90h16.8v0.6l0,0v1.8l0,0V93l0,0
			v1.2l0,0v0.6l0,0v0.6h-0.6v1.2l0,0v1.8l0,0V99l0,0v0.6L312.9,90.6z M313.5,107.4h-9.6l0.6-9.6L313.5,107.4z M314.1,90v17.4h-0.6
			l-0.6-16.8h0.6V90L314.1,90L314.1,90z M384.2,160.7h-16.8v-3l-0.6-2.4v-2.4l-0.6-2.4l-0.6-3l-0.6-2.4l-0.6-2.4l-1.2-2.4l-0.6-2.4
			l-1.2-2.4l-1.2-2.4l-1.2-2.4l-1.8-2.4L356,126l-1.8-1.8l-1.8-2.4L350,120l-1.8-1.8l-2.4-1.8l-1.8,0l-2.4-1.2l-2.4-1.2l-2.4-1.2
			l-1.8-1.2l-3-1.2l-2.4-0.6l-2.4-0.6l-2.4-0.6l-3-0.6l-2.4-0.6h-5.4V90l3.6,0.6h3.6l3.6,0.6l3.6,0.6l3.6,0.6l3,0.6l3.6,0.6l3,1.2
			l3.6,1.8l3,1.2l3,1.8l2.4,2.4l3,1.8l2.4,2.4l2.4,2.4l2.4,2.4l2.4,2.4l2.4,2.4l2.4,2.4l2.4,2.4l1.8,3l1.8,3l1.8,3l1.2,3l1.2,3.6
			l1.2,3.6l0.6,3l0,3.6l0.6,3.6l0.6,3.6l0.6,3.6L384.2,160.7L384.2,160.7z M314.1,230.8V214h3l2.4-0.6l2.4-0.6l3-0.6l2.4-0.6
			l2.4-0.6l2.4-0.6l2.4-0.6l2.4-0.6l2.4-1.2l2.4-1.2l2.4-1.2l2.4-1.8l2.4-1.8l1.8-1.8l2.4-1.8l1.8-1.8l1.8-2.4l1.2-1.8l1.8-2.4
			l1.2-2.4l1.2-2.4l1.2-2.4l0.6-2.4l1.2-2.4l0.6-2.4l0.6-2.4l0.6-2.4l0.6-2.4v-2.4l0.6-3v-2.4h16.8v3.6l-0.6,3.6l-0.6,3.6l-0.6,3.6
			l-0.6,3.6l-0.6,3.6l-1.2,3.6l-1.8,2.4l-1.2,3l-1.8,3l-1.8,3l-1.8,3l-2.4,3l-2.4,2.4L365,208l-2.4,2.4l-2.4,2.4l-1.2,2.4l-2.4,2.4
			l-3.6,1.8l-2.4,1.8l-3,1.8l-3,1.2l-3.6,1.2l-3,1.2l-3,1.8l-3,0.6l-3.6,0.6l-3.6,0.6l-3.6,0.6l-3.6,0.6L314.1,230.8z"/>
	</g>
	<g class="st4">
		<path class="st5" d="M1127.1,318.6l21.8-55.3h8.7l21.7,55.3H1168l-5.1-13.8h-19.4l-5.1,13.8H1127.1z M1153.2,275l-7.9,22.3h15.7
			L1153.2,275z"/>
		<path class="st5" d="M1225.4,272.8h-17.6v45.9H1197v-45.9h-17.7v-9.4h46V272.8z"/>
		<path class="st5" d="M1268.6,277.8c-0.4-0.4-1-0.9-2-1.5c-1-0.6-2.1-1.2-3.5-1.8c-1.4-0.6-2.9-1.1-4.5-1.5
			c-1.6-0.4-3.2-0.6-4.9-0.6c-3,0-5.2,0.5-6.6,1.6c-1.5,1.1-2.2,2.6-2.2,4.6c0,1.1,0.3,2.1,0.8,2.8c0.5,0.8,1.3,1.4,2.4,2
			c1,0.6,2.3,1.1,3.9,1.6c1.6,0.5,3.4,1,5.5,1.5c2.7,0.7,5.2,1.5,7.4,2.3c2.2,0.8,4.1,1.9,5.6,3.1s2.7,2.7,3.5,4.5
			c0.8,1.7,1.2,3.9,1.2,6.4c0,3-0.6,5.5-1.7,7.6c-1.1,2.1-2.6,3.8-4.5,5.1c-1.9,1.3-4,2.2-6.5,2.8c-2.5,0.6-5.1,0.9-7.8,0.9
			c-4.2,0-8.3-0.6-12.3-1.9s-7.7-3-10.9-5.3l4.8-9.3c0.5,0.5,1.3,1.1,2.5,1.8c1.2,0.8,2.7,1.5,4.3,2.3c1.7,0.8,3.5,1.4,5.5,1.9
			c2,0.5,4.1,0.8,6.2,0.8c5.9,0,8.9-1.9,8.9-5.7c0-1.2-0.3-2.3-1-3.1c-0.7-0.8-1.6-1.6-2.9-2.2c-1.2-0.6-2.8-1.2-4.5-1.7
			c-1.8-0.5-3.7-1.1-5.9-1.6c-2.6-0.7-4.9-1.5-6.9-2.4c-1.9-0.9-3.6-1.9-4.9-3c-1.3-1.1-2.3-2.5-2.9-4c-0.6-1.6-1-3.4-1-5.5
			c0-2.8,0.5-5.3,1.6-7.5c1-2.2,2.5-4,4.3-5.5c1.8-1.5,4-2.6,6.4-3.3c2.4-0.8,5.1-1.1,7.9-1.1c3.9,0,7.5,0.6,10.7,1.8
			c3.3,1.2,6.1,2.7,8.6,4.3L1268.6,277.8z"/>
	</g>
</g>
</svg>
